<svg xmlns="http://www.w3.org/2000/svg" width="320" height="158" viewBox="0 0 320 158">
    <defs>
        <linearGradient id="v49se7njsa" x1=".5" x2=".5" y2="1" gradientUnits="objectBoundingBox">
            <stop offset="0" stop-color="#28d150"/>
            <stop offset="1" stop-color="#28d150"/>
        </linearGradient>
        <linearGradient id="fuxrmbgfuc" x1=".5" x2=".5" y2="1" gradientUnits="objectBoundingBox">
            <stop offset="0" stop-color="#28d150" stop-opacity=".702"/>
            <stop offset="1" stop-color="#28d150" stop-opacity="0"/>
        </linearGradient>
        <clipPath id="zfvywwzwub">
            <path fill="url(#v49se7njsa)" stroke="#707070" d="M0 0H320V158H0z" transform="translate(20 268)"/>
        </clipPath>
    </defs>
    <g clip-path="url(#zfvywwzwub)" transform="translate(-20 -268)">
        <g>
            <path fill="url(#fuxrmbgfuc)" d="M-995-2631c2.1.749 53.868 12.225 55.435 12.376s13.267 10.115 14.817 10.306 47.287 10.347 47.287 10.347l24.585-3.6 67.107 21.761 68.812 15.009 41.956 7.571v66.23H-995z" transform="translate(0 0.38) translate(1015 2917.5)"/>
            <path fill="none" stroke="#28d150" stroke-width="2px" d="M-997.128-2631.88c-.2 1.329 56.029 13.381 57.6 13.551s12.779 10 14.329 10.21 48.508 10.638 48.508 10.638l24.6-3.823 67.044 21.841 68.379 15.26 49.19 8.419" transform="translate(0 0.38) translate(1015 2917.5)"/>
        </g>
    </g>
</svg>
