<svg xmlns="http://www.w3.org/2000/svg" width="72" height="72">
    <defs>
        <style>
            .cls-2{fill:none;stroke:#000;stroke-miterlimit:10;stroke-width:2px}
        </style>
    </defs>
    <g id="certification-icon2" transform="translate(-271.907 -1663.296)">
        <path id="사각형_3661" data-name="사각형 3661" transform="translate(271.907 1663.296)" style="opacity:.2;fill:none" d="M0 0h72v72H0z"/>
        <g id="그룹_4675" data-name="그룹 4675" transform="translate(283.473 1672.995)">
            <path id="패스_2803" data-name="패스 2803" class="cls-2" d="M310.676 1718.864h-17.712a10.777 10.777 0 0 1-10.776-10.776v-36.171h30.3l14.084 13.978v6.934" transform="translate(-282.188 -1671.917)"/>
            <path id="패스_2804" data-name="패스 2804" class="cls-2" d="M323.207 1685.895h-14.084v-13.977" transform="translate(-278.821 -1671.917)"/>
            <path id="선_1636" data-name="선 1636" class="cls-2" transform="translate(10.67 18.886)" d="M0 0h17.818"/>
            <path id="선_1637" data-name="선 1637" class="cls-2" transform="translate(10.67 30.409)" d="M0 0h12.484"/>
            <circle id="타원_82" data-name="타원 82" class="cls-2" cx="4.161" cy="4.161" r="4.161" transform="translate(35.317 28.978)"/>
            <circle id="타원_83" data-name="타원 83" class="cls-2" cx="9.389" cy="9.389" r="9.389" transform="translate(30.089 23.749)"/>
            <path id="패스_2805" data-name="패스 2805" class="cls-2" d="M311.968 1707.812v12.22l5.975-4.481 5.975 4.481v-12.22" transform="translate(-278.465 -1667.43)"/>
        </g>
    </g>
</svg>
