<svg xmlns="http://www.w3.org/2000/svg" width="121.73" height="26.195" viewBox="0 0 121.73 26.195">
    <defs>
        <clipPath id="clip-path">
            <path id="사각형_1856" fill="none" d="M0 0H121.73V26.195H0z"/>
        </clipPath>
        <style>
            .cls-4{fill:#6a5f53}
        </style>
    </defs>
    <g id="그룹_3892">
        <g id="그룹_3891" clip-path="url(#clip-path)">
            <path id="패스_1879" fill="#fca400" d="M36.179 13.442l-.32-.2a5.7 5.7 0 0 0-4.613-1.435 8.69 8.69 0 0 0-4.033 1.389v-.045a16.265 16.265 0 0 1 .119-1.651 16.462 16.462 0 0 0 .12-1.68 3.927 3.927 0 0 0-.252-1.529.3.3 0 0 0-.287-.185 4.393 4.393 0 0 0-1.861.61l-.14.306a12.423 12.423 0 0 1-.274 2.483c0-.006-.074.2-.074.2a30.37 30.37 0 0 0-.02 6.317c.024.18.372.454.64.552a4.078 4.078 0 0 0 1.751-.34l.2-.03a.3.3 0 0 0 .258-.352l.012-.521a5.2 5.2 0 0 1 3.783-3.707 2.614 2.614 0 0 1 2.511.81 3.437 3.437 0 0 1-.408 2.543 5.268 5.268 0 0 1-2.875 2.267 11.019 11.019 0 0 1-4.4.617c-.07-.046-1.618-1.092-1.618-1.092a23.3 23.3 0 0 0-4.614-2.745 5.576 5.576 0 0 1-1.048-.749l-.159-.131c-.89-.713-2.584-1.842-3.944-2.748l-.734-.491v-.153c.038-.043.892-.555.892-.555a9.136 9.136 0 0 0 1.868-1.222c-.024.029.16-.093.16-.093l2.965-1.678c2.846-1.565 6.073-3.34 7.767-5.095l.082-.267.037-.24a1.653 1.653 0 0 0 .026-.994.319.319 0 0 0-.23-.227c-1.322-.13-3.029.663-4.582 2.118a4.178 4.178 0 0 1-.956.661l-.237.131c-1.713.972-5.571 3.367-7.59 4.659a68.048 68.048 0 0 1 1.029-7.836L15.077.81l-.209-.389-.157-.28-.046-.013a1.272 1.272 0 0 0-.973-.058l-.4.149-.536.195a.3.3 0 0 0-.23.186 32.685 32.685 0 0 0-1.957 9.232A46.756 46.756 0 0 0 5.987 7.3l-.027-.013-.1-.023a3.236 3.236 0 0 1-1.066-.5c-.037-.022-.731-.474-.731-.474l-1.126-.711c.011.006-.294-.067-.294-.067A3.488 3.488 0 0 0 .965 6.637a.321.321 0 0 0-.051.181 1.02 1.02 0 0 0 .051.264l.049.228.053.137A15.976 15.976 0 0 0 4.286 9.63l1.54.815 2.356 1.288c0 .01.4.318.4.318l.276.161.049.031-4.281 2.862L2.371 16.6a12.673 12.673 0 0 1-1.3.622 1.86 1.86 0 0 0-1.013.838L0 18.187l.06.087.171.131c-.006 0 .232.151.232.151l.249.171.235.034a5.942 5.942 0 0 0 2.08-.689c1.006-.447 3.744-2.1 4.914-2.8l.5-.3a1.1 1.1 0 0 0 .636-.311 6.224 6.224 0 0 1 1.058-.637l.352-.195v.134a47.908 47.908 0 0 0 .65 8.187l.007.036.037.08a8.9 8.9 0 0 1 .607 1.881l.445 1.493c.009.017.127.14.127.14a2.951 2.951 0 0 0 1.548.409l.129-.016.081-.182a3.517 3.517 0 0 0 .06-.685c0-.273-.02-.574-.045-.942l-.035-.54c-.163-2.5-.327-6.108-.327-8.508v-.19l2.283 1.437c3.16 2.051 7.934 5.149 10.819 5.968a.422.422 0 0 0 .419-.1l.444-.284.082-.034a.8.8 0 0 0 .3-.661c2.431-.123 5.826-1.059 7.64-3.341a4.751 4.751 0 0 0 1.019-2.9 2.459 2.459 0 0 0-.594-1.776"/>
            <path id="패스_1880" d="M115.632 22.719v-6.39h2.239v4.456h12.634v1.934z" class="cls-4" transform="translate(-8.776 -1.24)"/>
            <path id="패스_1881" d="M128.725 3.81v9.59h-3.6v1.857h3.6v1.723h2.228V3.81z" class="cls-4" transform="translate(-9.496 -.29)"/>
            <path id="패스_1882" d="M119.035 16.471v-4.125h-5.626v-1.935h9.243V6.1h-8.122V4.181h10.37V10.4h1.781v1.946h-5.407v4.125z" class="cls-4" transform="translate(-8.607 -.318)"/>
            <path id="사각형_1855" d="M0 0H18.269V1.93H0z" class="cls-4" transform="translate(85.046 11.39)"/>
            <path id="패스_1883" d="M101.485 21.618c-2.812 0-5.084-.677-5.084-2.193s2.272-2.189 5.084-2.189 5.08.686 5.08 2.189-2.277 2.193-5.08 2.193m.007-6.313c-4.1 0-7.422 1.357-7.422 4.115 0 2.74 3.324 4.119 7.422 4.119s7.423-1.379 7.423-4.119c0-2.758-3.323-4.115-7.423-4.115" class="cls-4" transform="translate(-7.139 -1.162)"/>
            <path id="패스_1884" d="M109.115 8.932c-.432-.033-5.073-.342-6.224-2.871h5.762v-1.92H94.084V6.06h5.762C98.692 8.59 94.05 8.9 93.62 8.932v1.847c2.307-.134 5.8-.806 7.747-2.6 1.953 1.8 5.44 2.47 7.748 2.6z" class="cls-4" transform="translate(-7.105 -.315)"/>
            <path id="패스_1885" d="M69.711 3.969h8.755c4.165 0 6.341 1.382 6.341 4.407a4.075 4.075 0 0 1-3.5 4.033v.075c2.866.341 4.219 2.22 4.219 4.34 0 2.661-1.947 4.958-6.785 4.958h-9.03zm2.837 7.5h5.777c2.148 0 3.731-.813 3.731-2.711C82.055 7.1 81.273 6 78 6h-5.452zm0 8.288h5.6c3.476 0 4.4-1.356 4.4-3.084 0-2.047-1.415-3.18-4.548-3.18h-5.452z" class="cls-4" transform="translate(-5.29 -.302)"/>
            <path id="패스_1886" d="M48.863 3.968h2.843v7.972l9.575-7.971h4.025L55.19 12.014l10.956 9.768h-4.022l-10.418-9.547v9.546h-2.843z" class="cls-4" transform="translate(-3.708 -.302)"/>
        </g>
    </g>
</svg>
