<svg xmlns="http://www.w3.org/2000/svg" width="76.921" height="32.066" viewBox="0 0 76.921 32.066">
    <defs>
        <style>
            .cls-1{fill:#eee}
        </style>
    </defs>
    <g id="그룹_3771" transform="translate(-179.736 -384.947)">
        <path id="패스_96" d="M.225.2H2.01v5.575L8.715.2h2.624L4.27 5.848l7.688 6.85H9.335l-7.288-6.7v6.7H.261V.2zm13.118 0h6.122c2.915 0 4.445.984 4.445 3.1a2.867 2.867 0 0 1-2.441 2.842v.036A3.027 3.027 0 0 1 24.42 9.2c0 1.858-1.348 3.462-4.737 3.462h-6.34zm1.785 5.247h4.445c1.494 0 2.624-.547 2.624-1.895 0-1.166-.547-1.931-2.842-1.931h-4.19v3.826h-.036zm0 5.83h4.3c2.441 0 3.061-.947 3.061-2.15 0-1.421-.984-2.223-3.17-2.223h-4.19v4.373z" class="cls-1" transform="translate(179.511 393.784)"/>
        <path id="패스_97" d="M35.086 17.055a63.646 63.646 0 0 0 .789 10.15v.076c.452.676.94 3.383 1.315 4.249 0 .036.038.036.076.074a3.287 3.287 0 0 0 1.765.452.081.081 0 0 0 .076-.076 10.432 10.432 0 0 0-.038-2.631c-.226-3.158-.452-8.2-.414-11.242 2.479 1.392 11.719 8.008 16.528 9.4a.294.294 0 0 0 .3-.076 2.1 2.1 0 0 1 .714-.452.907.907 0 0 0 .262-.826c3.042-.112 7.288-1.278 9.5-4.1 1.539-1.918 1.5-4.587.563-5.489-.074-.076-.262-.114-.412-.262a6.964 6.964 0 0 0-5.559-1.73 10.643 10.643 0 0 0-5.221 1.88c-.114-2.07.714-4.664 0-6.355-.038-.074-.076-.074-.15-.074a4.808 4.808 0 0 0-2.18.716c-.076.036-.076.112-.112.224a12.3 12.3 0 0 1-.414 3.234c-.038.036-.038.074-.038.188a38.244 38.244 0 0 0-.036 7.745 1.174 1.174 0 0 0 .64.488 5.461 5.461 0 0 0 2.027-.412 1.049 1.049 0 0 1 .3-.038c.076 0 .114-.112.114-.189a4.71 4.71 0 0 1 .036-.714 6.636 6.636 0 0 1 4.883-4.774 3.386 3.386 0 0 1 3.306 1.09A4.209 4.209 0 0 1 63.219 21a6.925 6.925 0 0 1-3.68 2.933 13.609 13.609 0 0 1-5.6.79C52.065 23.6 48.947 21 46.2 19.949a9.26 9.26 0 0 1-1.577-1.128c-1.315-1.09-4.169-2.933-5.9-4.059v-.038a.544.544 0 0 1 .038-.376.494.494 0 0 1 .112-.15 32.32 32.32 0 0 0 3.306-2.106 1.358 1.358 0 0 1 .3-.188c3.763-2.293 10.374-5.376 13.266-8.384a.28.28 0 0 0 .038-.188c0-.112.038-.262.038-.376a1.927 1.927 0 0 0 .036-1.127.12.12 0 0 0-.112-.114c-1.541-.15-3.606.79-5.483 2.594a6.762 6.762 0 0 1-1.541 1.014c-2.179 1.242-7.288 4.4-9.729 5.979-.036.036-.074 0-.074-.038a85.057 85.057 0 0 1 1.314-10.112c0-.112 0-.188-.038-.224-.188-.3-.3-.64-.376-.752l-.036-.039A1.491 1.491 0 0 0 38.73.061c-.3.076-.676.3-1.165.414a.1.1 0 0 0-.112.112 40.266 40.266 0 0 0-2.441 11.73.037.037 0 0 1-.038.038 58.193 58.193 0 0 0-5.935-3.309c-.038 0-.074 0-.074-.038a3.917 3.917 0 0 1-1.465-.675c-.526-.338-1.579-1.052-2.255-1.466a.245.245 0 0 0-.224-.038A3.944 3.944 0 0 0 23.1 8.145c-.112.15.114.488.076.676 0 .038 0 .038.038.076a19.251 19.251 0 0 0 3.944 2.669c1.991 1.09 4.018 2.106 4.845 2.632l.038.036a1.67 1.67 0 0 0 .452.34 2.27 2.27 0 0 1 .6.376.093.093 0 0 1-.036.15c-2.1 1.466-6.273 4.173-8.264 5.526-.3.189-1.428.678-1.653.79a2.069 2.069 0 0 0-1.127.94c-.038.074 0 .112.076.112.338.076.412.3.638.414a.549.549 0 0 0 .262.038 7.9 7.9 0 0 0 2.441-.828c1.5-.676 6.122-3.533 6.686-3.833h.038a1.316 1.316 0 0 0 .752-.378 8.735 8.735 0 0 1 1.315-.789l.751-.414.112.376z" class="cls-1" transform="translate(189.473 384.947)"/>
    </g>
</svg>
