<svg xmlns="http://www.w3.org/2000/svg" width="261" height="153.87" viewBox="0 0 261 153.87">
    <defs>
        <filter id="사각형_1505" width="258" height="149" x="1.531" y="4.87" filterUnits="userSpaceOnUse">
            <feOffset dy="3"/>
            <feGaussianBlur result="blur" stdDeviation="3"/>
            <feFlood flood-opacity=".161"/>
            <feComposite in2="blur" operator="in"/>
            <feComposite in="SourceGraphic"/>
        </filter>
        <style>
            .cls-1{fill:none;stroke:#ff952b;stroke-linecap:round;stroke-linejoin:round;stroke-width:2px}.cls-3{fill:#eee}.cls-4{fill:#ccc}
        </style>
    </defs>
    <g id="그룹_3769" transform="translate(-49.469 -286.13)">
        <path id="패스_1430" d="M850.469 229.13h-20v20" class="cls-1" transform="translate(-780 58)"/>
        <path id="패스_1432" d="M850.469 229.13h-20v20" class="cls-1" transform="rotate(180 569.969 333.63)"/>
        <path id="패스_1431" d="M850.469 229.13h-20v20" class="cls-1" transform="rotate(-90 544.969 723.63)"/>
        <path id="패스_1433" d="M850.469 229.13h-20v20" class="cls-1" transform="rotate(90 540.969 -2.37)"/>
        <g filter="url(#사각형_1505)" transform="translate(49.47 286.13)">
            <rect id="사각형_1505-2" width="240" height="131" fill="#fff" rx="12" transform="translate(10.53 10.87)"/>
        </g>
        <path id="사각형_1506" d="M0 0H46V10H0z" class="cls-3" transform="translate(80 327)"/>
        <path id="사각형_1507" d="M0 0H75V10H0z" class="cls-3" transform="translate(80 347)"/>
        <g id="그룹_3758" transform="translate(-5.254 60)">
            <path id="사각형_1508" d="M0 0H57V66H0z" class="cls-3" transform="translate(229.254 257)"/>
            <g id="icon_profile" transform="translate(243.314 275.718)">
                <path id="패스_716" d="M154.248 154.412a14.286 14.286 0 1 0-28.572 0h28.572" class="cls-4" transform="translate(-125.676 -126.076)"/>
                <circle id="타원_76" cx="6.982" cy="6.982" r="6.982" class="cls-4" transform="translate(7.304)"/>
            </g>
        </g>
    </g>
</svg>
