<svg xmlns="http://www.w3.org/2000/svg" id="logo" width="140" height="16.004" viewBox="0 0 140 16.004">
    <defs>
        <style>
            .cls-1{fill:#333}
        </style>
    </defs>
    <g id="그룹_30">
        <g id="그룹_29">
            <path id="패스_64" d="M9.938 15.585a2.014 2.014 0 0 1-.655-.073c-.218-.073-.436-.073-.655-.145a1.462 1.462 0 0 1-.582-.291c-.145-.145-.291-.291-.291-.436L5.647 7.583l-.947 8.73h-4L2.446 2.564a1.525 1.525 0 0 1 .291-.8 1.961 1.961 0 0 1 .509-.582A1.907 1.907 0 0 1 3.9.818a2.585 2.585 0 0 1 .728-.145 3.262 3.262 0 0 1 .8.073c.291.073.582.145.8.218a2.613 2.613 0 0 1 .727.509 1.65 1.65 0 0 1 .436.8l2.546 8.875 2.546-8.875a2.428 2.428 0 0 1 .364-.873 2.613 2.613 0 0 1 .727-.509 1.658 1.658 0 0 1 .8-.218 3.262 3.262 0 0 1 .8-.073 2.585 2.585 0 0 1 .726.145 6.4 6.4 0 0 1 .727.436 1.961 1.961 0 0 1 .509.582 2.606 2.606 0 0 1 .291.8l1.75 13.677h-3.928l-.946-8.8-2.11 7.129A1.522 1.522 0 0 1 11.9 15a1.462 1.462 0 0 1-.582.291 2.124 2.124 0 0 1-.655.145 1.748 1.748 0 0 1-.725.149z" class="cls-1" transform="translate(-.7 -.527)"/>
            <path id="패스_65" d="M45.611 2.564a3.651 3.651 0 0 1 .145-.873 4.035 4.035 0 0 1 .436-.582 2.949 2.949 0 0 1 .655-.364 3.094 3.094 0 0 1 .8-.145 2.689 2.689 0 0 1 1.528.436 1.646 1.646 0 0 1 .655 1.455v8.366a5.088 5.088 0 0 1-.655 2.692 5.3 5.3 0 0 1-1.6 1.746 7.353 7.353 0 0 1-2.182.946 8.511 8.511 0 0 1-2.328.291 8.87 8.87 0 0 1-2.328-.291 7.353 7.353 0 0 1-2.182-.946 5.3 5.3 0 0 1-1.6-1.746 5.088 5.088 0 0 1-.655-2.692V2.564a3.652 3.652 0 0 1 .145-.873 4.035 4.035 0 0 1 .436-.582 5.683 5.683 0 0 1 .873-.364 3.094 3.094 0 0 1 .8-.145 2.689 2.689 0 0 1 1.528.436 1.646 1.646 0 0 1 .655 1.455v8.584a2.014 2.014 0 0 0 .218.946 1.717 1.717 0 0 0 .582.655 7.935 7.935 0 0 0 .8.436 2.692 2.692 0 0 0 1.746 0 2.185 2.185 0 0 0 .8-.436 2.51 2.51 0 0 0 .582-.655 2.014 2.014 0 0 0 .218-.946V2.564z" class="cls-1" transform="translate(-10.403 -.527)"/>
            <path id="패스_66" d="M66 16.367V3.783a4.036 4.036 0 0 1 .145-1.383 1.985 1.985 0 0 1 .509-.946 1.927 1.927 0 0 1 1.019-.509A4.958 4.958 0 0 1 69.2.8h6.983a2.615 2.615 0 0 1 .8.145.978.978 0 0 1 .509.436 1.462 1.462 0 0 1 .291.582 1.808 1.808 0 0 1 .073.582 1.6 1.6 0 0 1-.073.582 1.172 1.172 0 0 1-.291.509 1.3 1.3 0 0 1-.508.364 2.615 2.615 0 0 1-.8.145h-5.31a1.079 1.079 0 0 0-.509.073.615.615 0 0 0-.145.436v2.475h5.38a2.615 2.615 0 0 1 .8.145.978.978 0 0 1 .509.436 1.462 1.462 0 0 1 .291.582 1.808 1.808 0 0 1 .073.582 1.6 1.6 0 0 1-.073.582 1.173 1.173 0 0 1-.291.509 1.3 1.3 0 0 1-.509.364 2.615 2.615 0 0 1-.8.145h-5.381v5.82H66z" class="cls-1" transform="translate(-18.498 -.582)"/>
            <path id="패스_67" d="M92.4 16.367V3.783a6.7 6.7 0 0 1 .145-1.383 1.985 1.985 0 0 1 .509-.946 1.927 1.927 0 0 1 1.019-.509A4.958 4.958 0 0 1 95.6.8h6.911a2.615 2.615 0 0 1 .8.145.978.978 0 0 1 .509.436 1.462 1.462 0 0 1 .291.582 1.808 1.808 0 0 1 .073.582 1.6 1.6 0 0 1-.073.582 1.173 1.173 0 0 1-.291.509 1.3 1.3 0 0 1-.509.364 2.615 2.615 0 0 1-.8.145H97.2a1.079 1.079 0 0 0-.509.073.615.615 0 0 0-.145.436v2.475h5.383a2.615 2.615 0 0 1 .8.145.978.978 0 0 1 .509.436 1.462 1.462 0 0 1 .291.582 1.808 1.808 0 0 1 .073.582 1.6 1.6 0 0 1-.073.582 1.172 1.172 0 0 1-.291.509 1.3 1.3 0 0 1-.509.364 2.615 2.615 0 0 1-.8.145h-5.383v5.82H92.4z" class="cls-1" transform="translate(-25.694 -.582)"/>
            <path id="패스_68" d="M122.2 16.285a7.719 7.719 0 0 1-1.528-.145 3.332 3.332 0 0 1-1.018-.509 1.985 1.985 0 0 1-.509-.946A7.329 7.329 0 0 1 119 13.3V2.537a3.652 3.652 0 0 1 .145-.873 4 4 0 0 1 .509-.655 2.275 2.275 0 0 1 .727-.364 3.094 3.094 0 0 1 .8-.145 2.615 2.615 0 0 1 .8.145 2.275 2.275 0 0 1 .727.364 1.584 1.584 0 0 1 .509.655 1.575 1.575 0 0 1 .145.873v9.748a.615.615 0 0 0 .145.436c.073.073.218.073.509.073h4.656a2.615 2.615 0 0 1 .8.145 1.3 1.3 0 0 1 .509.364 1.824 1.824 0 0 1 .291.509 1.6 1.6 0 0 1 .073.582 1.6 1.6 0 0 1-.073.582 2.179 2.179 0 0 1-.291.582 3.163 3.163 0 0 1-.509.436 2.245 2.245 0 0 1-.8.145H122.2z" class="cls-1" transform="translate(-32.944 -.5)"/>
            <path id="패스_69" d="M148.519 6.765h5.674a2.615 2.615 0 0 1 .8.145.978.978 0 0 1 .509.436 1.462 1.462 0 0 1 .291.582 1.6 1.6 0 0 1 .073.582 1.6 1.6 0 0 1-.073.582 1.173 1.173 0 0 1-.291.509 1.3 1.3 0 0 1-.509.364 2.615 2.615 0 0 1-.8.145h-5.674v2.255a.615.615 0 0 0 .145.436c.073.073.218.073.509.073h5.456a2.615 2.615 0 0 1 .8.145 1.3 1.3 0 0 1 .509.364 1.823 1.823 0 0 1 .291.509 1.6 1.6 0 0 1 .073.582 1.6 1.6 0 0 1-.073.582 2.178 2.178 0 0 1-.291.582 3.164 3.164 0 0 1-.509.436 2.245 2.245 0 0 1-.8.145H147.5a7.718 7.718 0 0 1-1.528-.145 3.332 3.332 0 0 1-1.018-.509 1.985 1.985 0 0 1-.509-.946 7.327 7.327 0 0 1-.145-1.382V3.783a6.7 6.7 0 0 1 .145-1.382 1.985 1.985 0 0 1 .509-.946 1.927 1.927 0 0 1 1.018-.509A4.958 4.958 0 0 1 147.5.8h6.911a2.615 2.615 0 0 1 .8.145.978.978 0 0 1 .509.436 1.462 1.462 0 0 1 .291.582 1.808 1.808 0 0 1 .073.582 1.6 1.6 0 0 1-.073.582 1.172 1.172 0 0 1-.291.509 1.3 1.3 0 0 1-.509.364 2.615 2.615 0 0 1-.8.145h-5.238a1.079 1.079 0 0 0-.509.073.615.615 0 0 0-.145.436z" class="cls-1" transform="translate(-39.84 -.582)"/>
            <path id="패스_70" d="M184.558 6.038a3.77 3.77 0 0 1-.727 2.4 5.028 5.028 0 0 1-1.819 1.673l3.928 6.183h-4.728l-3.128-5.238h-2.692v5.238H171.1V3.783a6.7 6.7 0 0 1 .145-1.382 1.985 1.985 0 0 1 .509-.946 1.927 1.927 0 0 1 1.018-.509A4.958 4.958 0 0 1 174.3.8h3.855a8.877 8.877 0 0 1 2.473.291 4.951 4.951 0 0 1 1.964.946 3.99 3.99 0 0 1 1.309 1.6 5.423 5.423 0 0 1 .436 2.255v.145zm-9.093 1.819h2.692a2.122 2.122 0 0 0 1.6-.509 1.753 1.753 0 0 0 .509-1.309v-.147a1.753 1.753 0 0 0-.509-1.309 2.122 2.122 0 0 0-1.6-.509h-2.037c-.218 0-.364.073-.509.073a.615.615 0 0 0-.145.436z" class="cls-1" transform="translate(-47.144 -.582)"/>
        </g>
    </g>
    <path id="사각형_234" fill="none" d="M0 0H140V16H0z"/>
</svg>
