<svg xmlns="http://www.w3.org/2000/svg" width="89.639" height="99.13" viewBox="0 0 89.639 99.13">
    <defs>
        <linearGradient id="linear-gradient" x1=".501" x2=".501" y1=".997" y2="-.003" gradientUnits="objectBoundingBox">
            <stop offset="0" stop-color="#ffff2d"/>
            <stop offset=".187" stop-color="#ffc82c"/>
            <stop offset=".256" stop-color="#ffc12c"/>
            <stop offset="1" stop-color="#ff952b"/>
        </linearGradient>
        <style>
            .cls-2{fill:#575757}
        </style>
    </defs>
    <g id="그룹_3823" transform="translate(-55 -141)">
        <path id="패스_41" fill="url(#linear-gradient)" d="M473.415 231.425q4.912-5.083 9.655-10.286l4.744-5.2 4.693-5.244a29.5 29.5 0 0 0 2.1-2.44 10.617 10.617 0 0 0 1.418-2.447 5.814 5.814 0 0 0 .344-1.2 5.571 5.571 0 0 0 .073-.6l.022-.871.081-3.485.073-3.485.017-.855c.007-.251.007-.5 0-.752a12.366 12.366 0 0 0-.141-1.489 10.634 10.634 0 0 0-2.546-5.345 12.374 12.374 0 0 0-11.456-3.735 13 13 0 0 0-5.782 2.716c-.809.67-1.647 1.548-2.491 2.347l-2.521 2.443-2.526 2.447a7.778 7.778 0 0 1-3.426 1.944 8.014 8.014 0 0 1-7.447-1.747l-2.6-2.39-2.616-2.349-1.316-1.165c-.452-.4-.849-.748-1.281-1.067a13.14 13.14 0 0 0-2.764-1.574 12.357 12.357 0 0 0-11.676 1.2 10.507 10.507 0 0 0-4.514 6.951 11.887 11.887 0 0 0-.158 1.407c-.007.238-.017.476-.01.717l.009.832c.033 2.322.064 4.645.05 6.968-.054 2.44.083 3.4 1.281 4.971.6.761 1.394 1.585 2.2 2.44l2.412 2.554 4.84 5.092c1.61 1.7 3.239 3.382 4.832 5.1l2.377 2.589 1.184 1.3.3.324c.087.09.167.182.256.269a5.323 5.323 0 0 0 .563.485 5.819 5.819 0 0 0 5.838.648 6.065 6.065 0 0 0 1.32-.829 8.118 8.118 0 0 0 1.126-1.173l2.276-2.666c6.053-7.123 12-14.334 17.561-21.88a2.03 2.03 0 0 1 2.81-.439 1.963 1.963 0 0 1 .446 2.768 2.1 2.1 0 0 1-.219.251c-6.75 6.524-13.112 13.383-19.368 20.331l-2.34 2.61a12.058 12.058 0 0 1-1.308 1.346 7.586 7.586 0 0 1-1.644 1.051 8.2 8.2 0 0 1-7.657-.293 8.31 8.31 0 0 1-.846-.567c-.135-.1-.265-.214-.4-.32l-.336-.285-1.342-1.14-2.676-2.289c-1.775-1.534-3.515-3.1-5.273-4.655l-5.265-4.664-2.64-2.324A34.314 34.314 0 0 1 429 211.7a11.993 11.993 0 0 1-1.329-1.743 9 9 0 0 1-.961-2.143 11.41 11.41 0 0 1-.423-2.2c-.022-.181-.026-.351-.037-.528l-.019-.5-.019-.871c-.063-2.322-.081-4.645-.1-6.968v-.91c0-.34.024-.683.046-1.024a16.775 16.775 0 0 1 .293-2.045 14.544 14.544 0 0 1 7.2-9.75 16.051 16.051 0 0 1 7.78-2.018 15.849 15.849 0 0 1 10.733 4.2c.953.906 1.685 1.734 2.51 2.587l2.437 2.529 2.454 2.483a5.9 5.9 0 0 0 2.646 1.462 6.068 6.068 0 0 0 3.049-.05 5.97 5.97 0 0 0 2.6-1.545l2.423-2.528 2.427-2.534c.825-.839 1.567-1.69 2.525-2.559a15.4 15.4 0 0 1 6.692-3.53 15.845 15.845 0 0 1 7.689.084 15.311 15.311 0 0 1 6.79 3.826 14.322 14.322 0 0 1 2.427 3.155 14.891 14.891 0 0 1 1.466 3.71 16.329 16.329 0 0 1 .351 1.959q.058.493.084.988l.04.887.146 3.483.155 3.482.041.871a10.662 10.662 0 0 1-.02 1.137 10.469 10.469 0 0 1-.395 2.2 21.858 21.858 0 0 1-3.844 6.908l-4.039 5.713-3.975 5.769q-3.964 5.775-7.784 11.65a4.923 4.923 0 0 1-6.74 1.468 4.77 4.77 0 0 1-1.493-6.642 4.878 4.878 0 0 1 .562-.712z" transform="translate(-364.11 -40.002)"/>
        <g id="그룹_3687">
            <path id="패스_1650" d="M5.952 152.284a2.559 2.559 0 0 1-.417-.038 2.594 2.594 0 0 1-.443-.112 1.45 1.45 0 0 1-.37-.188.549.549 0 0 1-.207-.275l-1.358-4.562-.618 5.623H0l1.128-8.832a1.149 1.149 0 0 1 .168-.512 1.456 1.456 0 0 1 .342-.381 1.621 1.621 0 0 1 .437-.243 1.932 1.932 0 0 1 .463-.113 2.767 2.767 0 0 1 .517.025 1.72 1.72 0 0 1 .524.156 1.568 1.568 0 0 1 .45.324 1.245 1.245 0 0 1 .3.519l1.623 5.725 1.626-5.723a1.267 1.267 0 0 1 .288-.519 1.449 1.449 0 0 1 .451-.324 1.779 1.779 0 0 1 .531-.156 2.769 2.769 0 0 1 .517-.025 1.954 1.954 0 0 1 .464.113 1.634 1.634 0 0 1 .436.243 1.467 1.467 0 0 1 .343.381 1.162 1.162 0 0 1 .168.512l1.128 8.835H9.365l-.6-5.66-1.37 4.6a.548.548 0 0 1-.208.275 1.435 1.435 0 0 1-.369.188 2.624 2.624 0 0 1-.444.112 2.558 2.558 0 0 1-.416.038" class="cls-2" transform="translate(55 70.432)"/>
            <path id="패스_1651" d="M39.119 143.841a1.258 1.258 0 0 1 .114-.55 1.1 1.1 0 0 1 .3-.388 1.3 1.3 0 0 1 .436-.225 1.861 1.861 0 0 1 .531-.074 1.607 1.607 0 0 1 .974.3 1.086 1.086 0 0 1 .41.938v5.41a3.47 3.47 0 0 1-.4 1.75 3.4 3.4 0 0 1-1.035 1.131 4.141 4.141 0 0 1-1.4.612 6.219 6.219 0 0 1-2.984 0 4.146 4.146 0 0 1-1.4-.612A3.39 3.39 0 0 1 33.637 151a3.46 3.46 0 0 1-.4-1.75v-5.41a1.244 1.244 0 0 1 .114-.55 1.083 1.083 0 0 1 .3-.388 1.3 1.3 0 0 1 .436-.225 1.86 1.86 0 0 1 .531-.074 1.6 1.6 0 0 1 .974.3 1.085 1.085 0 0 1 .41.938v5.511a1.284 1.284 0 0 0 .14.611 1.353 1.353 0 0 0 .37.438 1.661 1.661 0 0 0 .5.263 1.747 1.747 0 0 0 1.089 0 1.667 1.667 0 0 0 .5-.263 1.34 1.34 0 0 0 .37-.438 1.272 1.272 0 0 0 .141-.611z" class="cls-2" transform="translate(38.575 70.453)"/>
            <path id="패스_1652" d="M60.543 152.762v-8.084a3.559 3.559 0 0 1 .1-.912 1.32 1.32 0 0 1 .342-.612 1.416 1.416 0 0 1 .645-.344 4.054 4.054 0 0 1 1.008-.106h4.475a1.1 1.1 0 0 1 .5.1 1.013 1.013 0 0 1 .336.262 1.041 1.041 0 0 1 .194.363 1.327 1.327 0 0 1 .061.387 1.273 1.273 0 0 1-.061.381 1.042 1.042 0 0 1-.188.35.9.9 0 0 1-.336.249 1.208 1.208 0 0 1-.5.095H63.7a.5.5 0 0 0-.31.068.388.388 0 0 0-.08.293v1.575h3.452a1.109 1.109 0 0 1 .5.1 1.013 1.013 0 0 1 .336.262 1.049 1.049 0 0 1 .195.362 1.336 1.336 0 0 1 .061.388 1.268 1.268 0 0 1-.061.381 1.036 1.036 0 0 1-.188.349.915.915 0 0 1-.336.25 1.227 1.227 0 0 1-.5.094h-3.458v3.748z" class="cls-2" transform="translate(25.079 70.405)"/>
            <path id="패스_1653" d="M85.089 152.762v-8.084a3.535 3.535 0 0 1 .1-.912 1.323 1.323 0 0 1 .342-.612 1.416 1.416 0 0 1 .645-.344 4.057 4.057 0 0 1 1.008-.106h4.476a1.105 1.105 0 0 1 .5.1 1.011 1.011 0 0 1 .336.262 1.041 1.041 0 0 1 .194.363 1.328 1.328 0 0 1 .061.387 1.273 1.273 0 0 1-.061.381 1.049 1.049 0 0 1-.187.35.91.91 0 0 1-.336.249 1.212 1.212 0 0 1-.5.095h-3.42a.5.5 0 0 0-.31.068.388.388 0 0 0-.079.293v1.575h3.452a1.109 1.109 0 0 1 .5.1 1.013 1.013 0 0 1 .336.262 1.05 1.05 0 0 1 .2.362 1.352 1.352 0 0 1 .06.388 1.283 1.283 0 0 1-.06.381 1.037 1.037 0 0 1-.189.349.91.91 0 0 1-.336.25 1.226 1.226 0 0 1-.5.094h-3.463v3.748z" class="cls-2" transform="translate(12.948 70.405)"/>
            <path id="패스_1654" d="M111.731 152.713a4.027 4.027 0 0 1-1.007-.106 1.415 1.415 0 0 1-.646-.344 1.316 1.316 0 0 1-.342-.612 3.559 3.559 0 0 1-.1-.912v-6.861a1.247 1.247 0 0 1 .115-.55 1.176 1.176 0 0 1 .309-.4 1.3 1.3 0 0 1 .45-.243 1.728 1.728 0 0 1 1.048 0 1.312 1.312 0 0 1 .45.243 1.2 1.2 0 0 1 .31.4 1.261 1.261 0 0 1 .113.55v6.286a.388.388 0 0 0 .081.293.5.5 0 0 0 .309.069h2.979a1.226 1.226 0 0 1 .5.093.906.906 0 0 1 .336.25 1.05 1.05 0 0 1 .189.351 1.288 1.288 0 0 1 .06.381 1.34 1.34 0 0 1-.06.387 1.051 1.051 0 0 1-.2.363 1.021 1.021 0 0 1-.336.263 1.116 1.116 0 0 1-.5.1z" class="cls-2" transform="translate(.816 70.453)"/>
            <path id="패스_1655" d="M135.872 146.587h3.667a1.111 1.111 0 0 1 .5.1 1.024 1.024 0 0 1 .531.619 1.272 1.272 0 0 1 .06.381 1.207 1.207 0 0 1-.06.375 1.035 1.035 0 0 1-.188.344.906.906 0 0 1-.336.249 1.209 1.209 0 0 1-.5.094h-3.667v1.462a.386.386 0 0 0 .08.293.5.5 0 0 0 .31.069h3.533a1.228 1.228 0 0 1 .5.093.9.9 0 0 1 .336.251 1.029 1.029 0 0 1 .188.35 1.273 1.273 0 0 1 .061.381 1.325 1.325 0 0 1-.061.387 1.027 1.027 0 0 1-.2.363 1.007 1.007 0 0 1-.335.263 1.119 1.119 0 0 1-.5.1h-4.581a4.024 4.024 0 0 1-1.007-.106 1.416 1.416 0 0 1-.646-.344 1.326 1.326 0 0 1-.342-.612 3.584 3.584 0 0 1-.1-.912v-6.111a3.582 3.582 0 0 1 .1-.912 1.331 1.331 0 0 1 .342-.612 1.421 1.421 0 0 1 .646-.344 4.047 4.047 0 0 1 1.007-.106h4.448a1.1 1.1 0 0 1 .5.1 1.013 1.013 0 0 1 .336.262 1.041 1.041 0 0 1 .194.363 1.33 1.33 0 0 1 .061.387 1.278 1.278 0 0 1-.061.381 1.045 1.045 0 0 1-.188.349.9.9 0 0 1-.336.249 1.208 1.208 0 0 1-.5.095h-3.4a.5.5 0 0 0-.31.068.387.387 0 0 0-.08.293z" class="cls-2" transform="translate(-10.789 70.405)"/>
            <path id="패스_1656" d="M166.741 146.115a2.749 2.749 0 0 1-.45 1.567 3.58 3.58 0 0 1-1.176 1.094l2.553 3.986h-3.036l-2.016-3.36H160.9v3.36h-2.755v-8.084a3.581 3.581 0 0 1 .1-.912 1.322 1.322 0 0 1 .342-.612 1.415 1.415 0 0 1 .646-.343 4.024 4.024 0 0 1 1.007-.106h2.472a6.4 6.4 0 0 1 1.612.193 3.615 3.615 0 0 1 1.276.6 2.821 2.821 0 0 1 .84 1.019 3.241 3.241 0 0 1 .3 1.449zm-5.844 1.174h1.746a1.379 1.379 0 0 0 1.028-.349 1.141 1.141 0 0 0 .343-.824v-.088a1.138 1.138 0 0 0-.343-.825 1.377 1.377 0 0 0-1.028-.35h-1.357a.5.5 0 0 0-.31.069.387.387 0 0 0-.08.293z" class="cls-2" transform="translate(-23.156 70.405)"/>
        </g>
        <g id="그룹_3688">
            <path id="패스_1657" d="M68.7 182.948a.292.292 0 0 1 0-.217c.029-.074.05-.132.064-.174a2.478 2.478 0 0 1 .232-.385 3.394 3.394 0 0 0 .222-.344 6.628 6.628 0 0 1 .4-.623 6.07 6.07 0 0 0 .359-.55l.185-.3c.067-.109.13-.214.191-.323a2.39 2.39 0 0 0 .148-.322.893.893 0 0 0 .058-.307 1.467 1.467 0 0 0-.428.079 1.909 1.909 0 0 0-.46.217l-.175.127a1.078 1.078 0 0 1-.29.138.217.217 0 0 1-.164 0 .257.257 0 0 1-.111-.1.32.32 0 0 1-.053-.142.287.287 0 0 1 .021-.154.629.629 0 0 1 .169-.216 1.265 1.265 0 0 1 .211-.154 2.177 2.177 0 0 1 .285-.137q.159-.063.323-.116a2.568 2.568 0 0 1 .333-.085 1.664 1.664 0 0 1 .306-.032c.064 0 .134 0 .212.011a.772.772 0 0 1 .222.054.444.444 0 0 1 .174.121.3.3 0 0 1 .069.206 1.641 1.641 0 0 1-.069.481 3.243 3.243 0 0 1-.174.45q-.106.222-.233.433c-.084.141-.165.282-.243.423a1.937 1.937 0 0 1-.148.222 2.92 2.92 0 0 0-.2.317 1.35 1.35 0 0 0 .122.106c.053.042.107.083.164.122s.107.076.153.111.079.06.1.074c.042.028.092.063.148.105l.169.127.154.117c.045.035.079.059.1.073a.41.41 0 0 1 .122.133.208.208 0 0 1-.016.185.256.256 0 0 1-.254.143.566.566 0 0 1-.285-.111l-.587-.392a3.125 3.125 0 0 0-.439-.253c-.05.078-.095.155-.137.232s-.07.125-.106.185a.625.625 0 0 1-.074.111c-.056.085-.122.182-.2.291a.389.389 0 0 1-.269.185.385.385 0 0 1-.191-.026.212.212 0 0 1-.116-.122m2.727 1.078a1.513 1.513 0 0 1 .058-.428 4.1 4.1 0 0 1 .153-.417 2.645 2.645 0 0 0 .122-.265 3.743 3.743 0 0 1 .185-.38 3.787 3.787 0 0 1 .211-.339.329.329 0 0 1 .2-.158.6.6 0 0 1 .249.037.191.191 0 0 1 .153.164.349.349 0 0 1-.09.237 2.353 2.353 0 0 0-.174.26 4.858 4.858 0 0 0-.243.438 1.842 1.842 0 0 0-.148.5.377.377 0 0 0-.011.1.1.1 0 0 0 .042.084.139.139 0 0 0 .1.031.6.6 0 0 0 .137-.016 1.192 1.192 0 0 0 .127-.037.694.694 0 0 0 .079-.032 7.938 7.938 0 0 1 .915-.327 7.739 7.739 0 0 1 1.072-.233.876.876 0 0 1 .259-.021.763.763 0 0 1 .217.053c.021.007.037.029.047.068a.373.373 0 0 1 .011.127.356.356 0 0 1-.032.127.112.112 0 0 1-.09.069 1.975 1.975 0 0 1-.259.053c-.131.021-.245.042-.343.063q-.308.085-.672.2t-.745.269c-.156.064-.319.133-.492.207a1.224 1.224 0 0 1-.65.058.407.407 0 0 1-.28-.169.522.522 0 0 1-.111-.318m1.659-2.262c.007-.148.016-.3.026-.449s.026-.3.048-.459q.053-.413.111-.894a4.978 4.978 0 0 1 .195-.914q.064-.18.111-.328a1.267 1.267 0 0 1 .111-.254.232.232 0 0 1 .2-.09.412.412 0 0 1 .233.048.434.434 0 0 1 .079.079.153.153 0 0 1 .037.09.463.463 0 0 1-.053.265 1.5 1.5 0 0 0-.1.243 8.659 8.659 0 0 0-.228 1.089q-.09.6-.185 1.151c-.014.113-.031.225-.053.338s-.039.219-.052.317a.6.6 0 0 1-.074.222c-.043.078-.092.11-.148.1a.258.258 0 0 1-.148-.085.415.415 0 0 1-.079-.148.56.56 0 0 1-.026-.169z" class="cls-2" transform="translate(21.057 52.774)"/>
            <path id="패스_1658" d="M84.029 182.774c-.021.021-.06.069-.117.143a2.683 2.683 0 0 1-.195.227 2.346 2.346 0 0 1-.222.206.328.328 0 0 1-.185.09.226.226 0 0 1-.233-.264.468.468 0 0 1 .079-.228 2.11 2.11 0 0 1 .164-.206c.043-.049.12-.15.233-.3s.233-.316.359-.492.244-.34.349-.491.177-.256.212-.312c.092-.134.181-.273.269-.417a1.9 1.9 0 0 0 .2-.418c.028-.07.007-.112-.063-.127a.334.334 0 0 0-.154-.006c-.046.011-.1.024-.174.037a1.119 1.119 0 0 0-.238.074.758.758 0 0 1-.258.064.955.955 0 0 1-.159.006.1.1 0 0 1-.063-.026.3.3 0 0 1-.09-.2.2.2 0 0 1 .09-.206 1.244 1.244 0 0 1 .227-.116 1.953 1.953 0 0 1 .217-.074 4.158 4.158 0 0 1 .465-.085 1.791 1.791 0 0 1 .433.011.678.678 0 0 1 .327.121.378.378 0 0 1 .127.344 1.025 1.025 0 0 1-.063.28c-.035.095-.064.167-.085.216l-.063.121-.09.164c-.032.057-.066.112-.1.169l-.084.138c-.035.057-.088.138-.159.243l-.222.333q-.116.174-.227.328c-.074.1-.132.179-.174.227a1.1 1.1 0 0 0 .265.132l.433.169.444.17a1.262 1.262 0 0 1 .3.142.142.142 0 0 1 .032.148.153.153 0 0 1-.137.127.258.258 0 0 1-.1.005l-.09-.005a2.211 2.211 0 0 1-.364-.058c-.138-.031-.275-.07-.413-.116s-.267-.093-.391-.143a1.8 1.8 0 0 1-.3-.148m3.837-.444a3.639 3.639 0 0 1-1.195-.486c-.028.049-.069.116-.122.2s-.109.173-.169.265a1.921 1.921 0 0 1-.185.243.588.588 0 0 1-.159.138.31.31 0 0 1-.137.016.2.2 0 0 1-.148-.09.21.21 0 0 1-.037-.116.227.227 0 0 1 .005-.1 1.972 1.972 0 0 1 .191-.423c.1-.176.208-.364.327-.56s.24-.389.36-.577.214-.343.285-.47.13-.238.2-.375a1.931 1.931 0 0 0 .159-.429.15.15 0 0 0-.006-.116c-.018-.035-.055-.049-.111-.042a.79.79 0 0 0-.327.121l-.339.217a.225.225 0 0 1-.179.011.282.282 0 0 1-.133-.095.288.288 0 0 1-.052-.159.259.259 0 0 1 .058-.18 1.311 1.311 0 0 1 .587-.364 1.852 1.852 0 0 1 .681-.09.694.694 0 0 1 .307.095.379.379 0 0 1 .148.359 1.66 1.66 0 0 1-.127.624 4.112 4.112 0 0 1-.275.571c-.07.12-.151.26-.243.423a4.507 4.507 0 0 0-.211.412 2.708 2.708 0 0 0 .518.322c.161.074.344.153.55.238.091.035.139.089.142.163a.22.22 0 0 1-.079.186.287.287 0 0 1-.137.073.346.346 0 0 1-.148-.01m1.247.581a.823.823 0 0 1-.016-.132c0-.06-.007-.121-.01-.185l-.011-.18c-.004-.058-.005-.1-.005-.116a.6.6 0 0 0-.032-.116.24.24 0 0 1-.011-.127q.095-.835.227-1.643t.312-1.655a1.017 1.017 0 0 1 .063-.19.176.176 0 0 1 .18-.1.29.29 0 0 1 .328.328.949.949 0 0 1-.064.343 2.158 2.158 0 0 0-.1.312q-.115.5-.2 1.015t-.111 1.046a2.771 2.771 0 0 1 .328-.132q.2-.068.423-.127t.449-.1a3.511 3.511 0 0 1 .407-.053h.18a.244.244 0 0 1 .074.011c.077.021.106.077.085.169s-.145.173-.37.243l-.317.1c-.12.038-.239.08-.36.127l-.338.132a2.3 2.3 0 0 0-.254.116.626.626 0 0 0-.338.582 2.085 2.085 0 0 0 .047.438 1.952 1.952 0 0 1 .048.428.134.134 0 0 1-.079.126.3.3 0 0 1-.133.043.243.243 0 0 1-.195-.08.584.584 0 0 1-.111-.2 1.382 1.382 0 0 1-.064-.233c-.014-.077-.028-.144-.042-.2" class="cls-2" transform="translate(13.942 52.727)"/>
            <path id="패스_1659" d="M107.139 182.708c.071-.057.132-.1.185-.138l.153-.1.154-.095c.053-.032.118-.069.2-.111l.048-.243c.018-.092.037-.183.058-.275.042-.254.086-.475.132-.666a5.218 5.218 0 0 0 .111-.687.265.265 0 0 0-.063-.249.329.329 0 0 0-.233-.058 1.951 1.951 0 0 0-.539.138.9.9 0 0 0-.465.423.656.656 0 0 0-.042.2 1.439 1.439 0 0 0-.01.3c.014.156.023.289.026.4s.01.24.016.381a.374.374 0 0 1-.026.153.176.176 0 0 1-.074.084.254.254 0 0 1-.09.032.6.6 0 0 1-.074.005.2.2 0 0 1-.143-.053.512.512 0 0 1-.1-.127.659.659 0 0 1-.064-.153c-.014-.053-.024-.1-.031-.132s-.015-.084-.022-.148-.01-.1-.01-.116q-.021-.243-.032-.46a2.76 2.76 0 0 1 .021-.469c.028-.233.061-.463.1-.693a3.039 3.039 0 0 1 .195-.671.21.21 0 0 1 .18-.138.443.443 0 0 1 .254.032.163.163 0 0 1 .116.1.194.194 0 0 1 .011.138 1.754 1.754 0 0 1-.085.265l-.048.143a1.469 1.469 0 0 0-.037.153 5.089 5.089 0 0 1 .545-.238 2.072 2.072 0 0 1 .555-.111.8.8 0 0 1 .539.148.521.521 0 0 1 .211.486q-.021.286-.048.492c-.017.137-.037.264-.058.381s-.042.227-.063.333-.046.222-.074.349l-.037.169a.684.684 0 0 0-.015.137 1.986 1.986 0 0 1 .222-.079.87.87 0 0 0 .137-.048c.148-.056.272-.1.37-.137a1.853 1.853 0 0 1 .254-.074c.1-.021.158.007.18.084a.19.19 0 0 1-.022.18.945.945 0 0 1-.19.133q-.137.08-.3.164l-.307.159-.185.1c-.134.063-.245.12-.333.169l-.343.19a1.027 1.027 0 0 0-.111.069c-.046.032-.1.064-.148.1s-.106.062-.159.09-.093.05-.122.064a.191.191 0 0 1-.153-.027.394.394 0 0 1-.127-.121.324.324 0 0 1-.053-.159.173.173 0 0 1 .069-.148m4.736-1.29a1.751 1.751 0 0 0 .015-.18.844.844 0 0 1 .027-.19l.19-.867c-.056.021-.126.051-.21.09s-.173.076-.265.111l-.623.233q-.317.115-.635.222-.147.052-.285.089a1.155 1.155 0 0 1-.307.037.509.509 0 0 1-.222-.037c-.05-.024-.074-.085-.074-.185a.769.769 0 0 1 .032-.169.171.171 0 0 1 .116-.137.318.318 0 0 0 .058-.011l.106-.026c.039-.01.074-.02.106-.027a.346.346 0 0 1 .068-.01c.239-.064.428-.118.565-.164s.242-.079.312-.1.129-.043.2-.064.128-.042.185-.063c.084-.029.185-.064.3-.106s.23-.09.344-.143a1.531 1.531 0 0 0 .3-.185.493.493 0 0 0 .174-.243l.032-.127c.014-.056.026-.111.037-.164s.021-.1.032-.142a.7.7 0 0 0 .016-.074.175.175 0 0 1 .126-.111.522.522 0 0 1 .159-.037.35.35 0 0 1 .248.068.313.313 0 0 1 .069.228 1.046 1.046 0 0 1-.116.481 2.014 2.014 0 0 0-.169.449c-.1.381-.187.761-.265 1.142a5.808 5.808 0 0 0-.116 1.162 3.49 3.49 0 0 0 .048.576l.079.5a.127.127 0 0 1-.053.111.194.194 0 0 1-.116.037.325.325 0 0 1-.222-.074.38.38 0 0 1-.116-.19c-.014-.057-.042-.161-.084-.312a1.61 1.61 0 0 1-.063-.428c-.008-.162-.013-.325-.016-.487a4.339 4.339 0 0 1 .016-.486" class="cls-2" transform="translate(2.516 52.644)"/>
            <path id="패스_1660" d="M123.7 182.4a3.121 3.121 0 0 1-.016-.46q.005-.312.032-.682c.017-.247.043-.5.079-.751s.074-.479.116-.676l.027-.121a.5.5 0 0 1 .047-.127.287.287 0 0 1 .1-.1.318.318 0 0 1 .18-.043.264.264 0 0 1 .185.09.235.235 0 0 1 .069.217c-.014.07-.028.154-.042.254l-.043.3-.042.3c-.015.1-.028.18-.042.243a2.224 2.224 0 0 0-.037.228c-.011.087-.021.183-.032.285s-.019.2-.026.307-.011.195-.011.28a.215.215 0 0 0 .063.2.161.161 0 0 0 .159.021q.222-.074.5-.185c.183-.074.365-.149.544-.227l.5-.216a2.085 2.085 0 0 1 .38-.132.159.159 0 0 1 .18.095.28.28 0 0 1 0 .153.312.312 0 0 1-.106.164 1.038 1.038 0 0 1-.185.148c-.067.042-.135.085-.206.127s-.157.09-.3.164-.3.151-.476.232-.345.156-.518.223a2.442 2.442 0 0 1-.439.132.524.524 0 0 1-.4-.08.5.5 0 0 1-.238-.364m3.8 1.088c-.008-.078-.011-.2-.011-.36s0-.334.011-.517.014-.356.021-.518.014-.281.021-.359c.007-.148.021-.32.042-.513l.064-.587c.022-.198.045-.39.074-.581s.06-.36.1-.508l.053-.275a3.294 3.294 0 0 1 .079-.328 1.215 1.215 0 0 1 .117-.274.206.206 0 0 1 .185-.117.457.457 0 0 1 .237.074.193.193 0 0 1 .111.191 1.717 1.717 0 0 1-.074.342q-.052.164-.084.312-.105.55-.169.941c-.043.261-.076.475-.1.644s-.042.3-.053.4-.019.164-.026.207q-.021.168-.042.465l-.043.618c-.015.218-.027.423-.042.624s-.024.358-.032.469a.1.1 0 0 1-.084.1.837.837 0 0 1-.106.01.176.176 0 0 1-.174-.143 1.592 1.592 0 0 1-.069-.311" class="cls-2" transform="translate(-6.125 52.686)"/>
            <path id="패스_1661" d="M136.8 175.764a.283.283 0 0 1 .052-.475 3.361 3.361 0 0 1 .508-.265 4.785 4.785 0 0 1 .6-.211 2.513 2.513 0 0 1 .274-.069c.092-.018.187-.034.286-.048.162-.013.317-.024.465-.031a3.169 3.169 0 0 1 .444.011c.1.008.189.017.27.031a.9.9 0 0 1 .248.085.183.183 0 0 1 .09.084.24.24 0 0 1 .037.116.229.229 0 0 1-.053.154.309.309 0 0 1-.105.058.4.4 0 0 1-.121.005.306.306 0 0 1-.1-.016 5.014 5.014 0 0 0-.644.022 6.689 6.689 0 0 0-.667.1 4.448 4.448 0 0 0-.618.163 2.611 2.611 0 0 0-.5.227 2.224 2.224 0 0 1-.238.1.194.194 0 0 1-.227-.032m-.022 3.827a.318.318 0 0 1 .032-.133.214.214 0 0 1 .085-.1q.073-.032.259-.1c.122-.042.257-.085.4-.127s.28-.08.407-.115l.264-.074q.253-.064.565-.127c.207-.043.419-.081.634-.117s.428-.063.64-.084.4-.032.581-.032a2.578 2.578 0 0 1 .291.017.613.613 0 0 1 .227.058.162.162 0 0 1 .074.053.1.1 0 0 1 .021.054.19.19 0 0 1-.01.143.167.167 0 0 1-.084.079 2.291 2.291 0 0 1-.375.069l-.418.037c-.1.007-.218.019-.359.037s-.287.039-.439.063-.3.053-.439.085-.264.061-.37.09c-.063.021-.166.052-.306.1l-.445.132c-.155.045-.3.093-.449.143s-.252.088-.322.116a.5.5 0 0 1-.212.063.2.2 0 0 1-.19-.116.453.453 0 0 1-.064-.211m1.555 5.263a.776.776 0 0 1 .127-.36 2.376 2.376 0 0 1 .269-.359c.1-.113.2-.215.3-.307s.17-.162.212-.211l.153-.159c.074-.077.151-.16.233-.248s.161-.175.243-.259l.185-.191c-.092-.006-.192-.008-.3 0s-.288 0-.534 0a.572.572 0 0 1-.418-.148.418.418 0 0 1-.132-.359.652.652 0 0 1 .159-.328 4.571 4.571 0 0 1 .333-.381q.184-.189.375-.359t.285-.264l.1-.1.111-.111.09-.09c.024-.024.037-.04.037-.047a.069.069 0 0 0 .005-.069c-.011-.024-.034-.033-.069-.025a7.135 7.135 0 0 0-.756.132 3 3 0 0 0-.671.227c-.085.042-.173.083-.264.122a1.611 1.611 0 0 0-.265.142q-.127.085-.222.143a.382.382 0 0 1-.2.058.269.269 0 0 1-.222-.09.3.3 0 0 1-.074-.2.29.29 0 0 1 .117-.233 2.289 2.289 0 0 1 .576-.317 7.284 7.284 0 0 1 .824-.28c.292-.081.58-.147.861-.2a4.21 4.21 0 0 1 .687-.074.533.533 0 0 1 .355.122.38.38 0 0 1 .142.3.5.5 0 0 1-.127.3 3.062 3.062 0 0 1-.3.333c-.116.113-.235.221-.354.322s-.215.189-.285.258-.168.159-.27.265a3.859 3.859 0 0 0-.27.307.066.066 0 0 0-.01.063c.007.022.031.032.074.032h.428c.145 0 .3 0 .46.011a.639.639 0 0 1 .312.1.29.29 0 0 1 .142.232.271.271 0 0 1-.037.185c-.031.047-.058.086-.079.122l-.132.143c-.081.087-.153.167-.217.238q-.316.338-.639.687t-.6.7a.216.216 0 0 0-.037.227q.048.121.291.1a3.46 3.46 0 0 0 .444-.058c.169-.031.344-.067.523-.106s.357-.077.529-.116.33-.075.471-.11a.16.16 0 0 1 .132.011.513.513 0 0 1 .068.053.223.223 0 0 1 .032.163.218.218 0 0 1-.137.175 3.384 3.384 0 0 1-.566.206c-.236.068-.475.125-.719.175s-.466.09-.671.121a3.256 3.256 0 0 1-.434.048.692.692 0 0 1-.5-.18.612.612 0 0 1-.174-.486m-.857-8.032a1.019 1.019 0 0 1-.01-.154c0-.06 0-.159.01-.3.008-.092.016-.172.027-.243a1.3 1.3 0 0 1 .068-.254.273.273 0 0 1 .127-.159.426.426 0 0 1 .191-.042.264.264 0 0 1 .19.085.3.3 0 0 1 .074.243.961.961 0 0 1-.053.222.893.893 0 0 0-.053.232c0 .022 0 .061-.006.117s-.007.114-.011.174-.005.115-.005.164v.085a.674.674 0 0 1-.005.068.854.854 0 0 1-.021.106.259.259 0 0 1-.053.1.127.127 0 0 1-.1.042.279.279 0 0 1-.28-.148 1.093 1.093 0 0 1-.09-.338m2.219 1.036q-.391.084-.676.174a7.224 7.224 0 0 0-.677.258q-.085.043-.211.1a.4.4 0 0 1-.212.047.307.307 0 0 1-.306-.243.32.32 0 0 1 .137-.307c.1-.091.182-.172.248-.243s.128-.139.185-.206a2.11 2.11 0 0 0 .163-.223c.053-.08.118-.173.2-.279a3.806 3.806 0 0 0 .212-.323 2.03 2.03 0 0 0 .158-.343c.028-.077.055-.154.078-.228s.052-.15.08-.227a.122.122 0 0 1 .1-.09.534.534 0 0 1 .159-.006.238.238 0 0 1 .164.1.334.334 0 0 1 .047.185.862.862 0 0 1-.037.243 2.288 2.288 0 0 1-.089.258 1.632 1.632 0 0 1-.143.281c-.06.095-.14.209-.238.343a2.853 2.853 0 0 1-.217.275l-.28.317c.113-.049.224-.093.333-.132a3.538 3.538 0 0 1 .4-.111l.2-.053c.056-.015.111-.026.163-.037s.108-.02.164-.026a1.463 1.463 0 0 1 .2-.011q.159 0 .323-.006a.916.916 0 0 1 .3.037.094.094 0 0 1 .053.058.22.22 0 0 1 .016.106.237.237 0 0 1-.032.1.086.086 0 0 1-.079.042c-.071.014-.136.027-.2.037s-.122.023-.185.037-.136.028-.217.042-.178.031-.291.053" class="cls-2" transform="translate(-12.555 54.61)"/>
            <path id="패스_1662" d="M148.886 183a.955.955 0 0 1 .042-.285 1.438 1.438 0 0 1 .1-.212l.116-.211c.106-.162.207-.326.3-.492s.2-.333.322-.5q.147-.212.258-.359a.579.579 0 0 0 .122-.233c0-.042-.043-.077-.127-.106a.764.764 0 0 0-.159-.037.581.581 0 0 1-.2-.069.594.594 0 0 1-.19-.153.478.478 0 0 1-.084-.312.784.784 0 0 1 .042-.285c.028-.071.063-.151.106-.243.063-.127.126-.25.19-.369s.123-.247.18-.381a.8.8 0 0 0 .042-.122c.007-.031.014-.082.021-.153a.078.078 0 0 0-.032-.084.137.137 0 0 0-.084-.032h-.211a.984.984 0 0 0-.243.048c-.077.021-.145.04-.2.058a.781.781 0 0 1-.222.026.247.247 0 0 1-.174-.063.232.232 0 0 1-.069-.18.223.223 0 0 1 .042-.133.346.346 0 0 1 .074-.079.567.567 0 0 1 .159-.08 2.244 2.244 0 0 1 .243-.068 1.6 1.6 0 0 1 .417-.059 3.541 3.541 0 0 1 .355.006 1.017 1.017 0 0 1 .412.137.388.388 0 0 1 .2.36.911.911 0 0 1-.084.391q-.086.179-.18.39a1.031 1.031 0 0 1-.095.2l-.127.211c-.043.071-.082.141-.117.212a.59.59 0 0 0-.063.18.153.153 0 0 0 .116.2c.077.022.154.039.228.053a1.454 1.454 0 0 1 .174.043.464.464 0 0 1 .206.1.278.278 0 0 1 .08.212.95.95 0 0 1-.138.465c-.035.056-.081.125-.137.205s-.113.164-.169.249l-.153.227-.09.132c-.063.1-.128.2-.2.3s-.132.21-.2.323c-.042.077-.087.158-.132.243a.511.511 0 0 0-.069.243c0 .07.038.1.117.095a2.67 2.67 0 0 0 .449-.074c.137-.035.287-.077.449-.127.071-.021.167-.046.291-.074s.213-.048.27-.063a1.132 1.132 0 0 1 .211 0 .125.125 0 0 1 .1.122.186.186 0 0 1-.1.173.6.6 0 0 1-.116.063l-.116.053-.3.127a3.2 3.2 0 0 1-.333.116c-.077.029-.169.06-.275.1a2.253 2.253 0 0 1-.264.073c-.064.015-.118.025-.164.031a.944.944 0 0 1-.153.011 1.327 1.327 0 0 1-.238-.021.565.565 0 0 1-.217-.085.465.465 0 0 1-.153-.169.564.564 0 0 1-.058-.275m3.3-2.61c0-.064 0-.123-.005-.18a1.428 1.428 0 0 1 0-.174c0-.06.007-.128.011-.206s.012-.172.026-.285c.014-.141.032-.282.053-.423l.063-.432c.008-.056.053-.092.138-.106a.475.475 0 0 1 .243.021.3.3 0 0 1 .174.127.319.319 0 0 1 .027.18l-.042.29q-.021.142-.042.3c-.015.105-.026.206-.037.3s-.02.194-.026.3-.013.213-.016.333 0 .257 0 .412c0 .021 0 .068.005.143s.011.156.022.243l.031.254a.612.612 0 0 0 .048.186 4.241 4.241 0 0 1 .539-.455 3.892 3.892 0 0 1 .613-.359.587.587 0 0 1 .148-.048.975.975 0 0 1 .163-.016.294.294 0 0 1 .133.027.113.113 0 0 1 .064.079.173.173 0 0 1-.032.164 1.356 1.356 0 0 1-.127.1 3.882 3.882 0 0 1-.386.258 3.037 3.037 0 0 0-.386.27c-.119.106-.216.194-.29.264a2.148 2.148 0 0 0-.174.185.469.469 0 0 0-.084.148.415.415 0 0 0-.011.164q0 .022.011.106c.007.057.01.089.01.1a.176.176 0 0 1-.074.143.268.268 0 0 1-.169.058.374.374 0 0 1-.243-.069.442.442 0 0 1-.132-.179 1.065 1.065 0 0 1-.069-.238l-.042-.243a4.624 4.624 0 0 1-.106-.866c-.007-.282-.018-.571-.032-.867m2.378 1.69c0-.211.013-.446.037-.7s.055-.5.09-.735l.063-.465c.021-.156.047-.314.074-.475.022-.12.042-.246.064-.376l.063-.386c.021-.127.081-.2.18-.2a.659.659 0 0 1 .3.074.238.238 0 0 1 .148.222 1.742 1.742 0 0 1-.106.577 3.337 3.337 0 0 0-.148.565c-.035.227-.068.452-.1.677s-.065.447-.1.666c-.014.12-.028.3-.042.539s-.021.475-.021.709c0 .169-.088.253-.264.253a.171.171 0 0 1-.111-.053.287.287 0 0 1-.08-.169c-.014-.119-.024-.238-.031-.354s-.011-.238-.011-.365" class="cls-2" transform="translate(-18.503 53.044)"/>
            <path id="패스_1663" d="M166.875 183.176a.518.518 0 0 1-.348-.174 1.167 1.167 0 0 1-.223-.375 2.171 2.171 0 0 1-.121-.5 4.6 4.6 0 0 1-.043-.539c0-.176 0-.345.007-.507s.013-.3.021-.4c.014-.226.032-.419.053-.582s.049-.352.084-.571c.021-.141.12-.2.3-.19a.429.429 0 0 1 .243.1.234.234 0 0 1 .1.212 1.219 1.219 0 0 1-.059.29 1.719 1.719 0 0 0-.068.291c-.021.141-.037.279-.048.412s-.02.272-.026.413c-.008.1-.013.227-.016.386a4.041 4.041 0 0 0 .016.465 1.529 1.529 0 0 0 .084.4c.042.113.106.173.191.18a1.215 1.215 0 0 0 .275-.042c.112-.028.231-.064.354-.106s.238-.086.343-.132.191-.087.254-.122a.22.22 0 0 1 .144-.031.337.337 0 0 1 .126.047.186.186 0 0 1 .079.106.245.245 0 0 1 0 .143.276.276 0 0 1-.09.148l-.132.095a3.537 3.537 0 0 1-.307.2 3.914 3.914 0 0 1-.407.206 3.132 3.132 0 0 1-.427.153.863.863 0 0 1-.349.037m3.964-1.7v-.291c0-.124.007-.252.012-.386s.007-.262.01-.386.009-.224.016-.3q-.316.137-.713.275t-.819.275l-.222.067-.412.127c-.148.046-.284.086-.407.122a1.9 1.9 0 0 1-.206.053.286.286 0 0 1-.175-.059.258.258 0 0 1-.1-.174.471.471 0 0 1 0-.211.221.221 0 0 1 .1-.148.213.213 0 0 1 .111-.022.789.789 0 0 0 .132-.01c.07-.015.181-.042.333-.085s.32-.094.507-.153l.587-.19q.307-.1.576-.206t.475-.2a1.228 1.228 0 0 0 .28-.153.474.474 0 0 0 .169-.37l.011-.138c0-.07.045-.121.137-.153a.5.5 0 0 1 .254-.027.4.4 0 0 1 .181.074.257.257 0 0 1 .063.2 1.223 1.223 0 0 1-.127.539 1.723 1.723 0 0 0-.158.55c-.008.064-.016.152-.027.266s-.019.225-.026.338-.012.214-.016.306-.005.148-.005.17q-.021.413-.011.83c.007.278.011.551.011.819 0 .091-.053.137-.159.137a.235.235 0 0 1-.227-.131.921.921 0 0 1-.09-.238 5.783 5.783 0 0 1-.073-1.12" class="cls-2" transform="translate(-27.108 52.599)"/>
        </g>
    </g>
</svg>
