<svg xmlns="http://www.w3.org/2000/svg" width="133.77" height="22.15" viewBox="0 0 133.77 22.15">
    <defs>
        <clipPath id="clip-path">
            <path id="사각형_2156" fill="none" d="M0 0H133.77V22.15H0z"/>
        </clipPath>
        <style>
            .cls-3{fill:#ff952b}.cls-4{fill:#333}
        </style>
    </defs>
    <g id="그룹_3965" transform="translate(0 -.001)">
        <g id="그룹_3963" clip-path="url(#clip-path)" transform="translate(0 .001)">
            <path id="패스_2431" d="M16.082 17.95h3.544L17.732 2.005A2.262 2.262 0 0 0 15.67.051a2.422 2.422 0 0 0-2.65 1.6L9.812 13.788 6.6 1.644A2.421 2.421 0 0 0 3.954.051 2.259 2.259 0 0 0 1.894 2L0 17.95h3.545L4.8 5.686l2.93 10.589c.149.492 1.217.837 2.084.837s1.941-.345 2.086-.84L14.856 5.6z" class="cls-3" transform="translate(0 -.017)"/>
            <path id="패스_2432" d="M74.679 28.86a1.356 1.356 0 0 0-.8.237 1.628 1.628 0 0 0-.617 1.106 1.649 1.649 0 0 0 1.461 1.817l.066.006c3.111.451 5.349-.868 6.664-3.908l4.873-11.162a2 2 0 0 0 .037-1.584 1.8 1.8 0 0 0-1.053-.968 2.226 2.226 0 0 0-1.7.013 1.741 1.741 0 0 0-.9 1.057l-2.834 8.316-3.076-8.311a1.781 1.781 0 0 0-1.086-1.128 2.336 2.336 0 0 0-1.562.051 1.9 1.9 0 0 0-1.109 1.034 1.858 1.858 0 0 0 .046 1.517l4.77 10.618v.193l-.049.115a2.507 2.507 0 0 1-2.74 1.021 2.16 2.16 0 0 0-.391-.038" class="cls-3" transform="translate(-50.999 -9.962)"/>
            <path id="패스_2433" d="M143.3 17.932h3.544l-1.89-15.944a2.262 2.262 0 0 0-2.062-1.954 2.422 2.422 0 0 0-2.65 1.6l-3.208 12.137-3.207-12.144a2.422 2.422 0 0 0-2.651-1.6 2.26 2.26 0 0 0-2.059 1.948l-1.895 15.958h3.545l1.254-12.263 2.93 10.589c.149.492 1.217.837 2.084.837s1.941-.345 2.086-.84l2.957-10.669z" class="cls-4" transform="translate(-88.995)"/>
            <path id="패스_2434" d="M206.075 12.824a1.788 1.788 0 0 0-1.976 1.907v6.217c0 4 1.6 5.943 4.876 5.943a4.367 4.367 0 0 0 3.609-1.73l.579-.8.361 2.525h2.926V14.707a1.942 1.942 0 0 0-3.882 0v6.635a2.269 2.269 0 0 1-4.528.293 2.3 2.3 0 0 1 .011-.409v-6.5a1.788 1.788 0 0 0-1.976-1.907" class="cls-4" transform="translate(-142.768 -8.96)"/>
            <path id="패스_2435" d="M256.969 17.949h3.9V8.594h1.737c1.416 0 1.628-.933 1.628-1.489a1.442 1.442 0 0 0-1.334-1.543 1.463 1.463 0 0 0-.294.009h-1.737V4.508c0-.907.373-1.366 1.11-1.366a4.027 4.027 0 0 1 .718.075l.181.033a3.343 3.343 0 0 0 .7.078 1.345 1.345 0 0 0 1.185-1.028 1.42 1.42 0 0 0-.61-1.687 4.783 4.783 0 0 0-2.448-.588c-3.365 0-4.738 1.338-4.738 4.621v.925h-1.2a1.442 1.442 0 0 0-1.619 1.239 1.459 1.459 0 0 0-.009.294c0 .556.212 1.489 1.628 1.489h1.2z" class="cls-4" transform="translate(-177.774 -.017)"/>
            <path id="패스_2436" d="M295.347 17.942h3.906V8.594h1.737c1.416 0 1.628-.933 1.628-1.489a1.442 1.442 0 0 0-1.628-1.534h-1.737V4.508c0-.907.373-1.366 1.11-1.366a4.073 4.073 0 0 1 .717.075l.181.033a3.34 3.34 0 0 0 .7.078 1.344 1.344 0 0 0 1.18-1.028 1.422 1.422 0 0 0-.61-1.687 4.785 4.785 0 0 0-2.447-.588c-3.365 0-4.738 1.338-4.738 4.621v.925h-1.2a1.442 1.442 0 0 0-1.628 1.534c0 .556.212 1.489 1.628 1.489h1.2z" class="cls-4" transform="translate(-204.621 -.017)"/>
            <path id="패스_2437" d="M336.6 17.942h3.952V1.927a1.977 1.977 0 0 0-3.952 0z" class="cls-4" transform="translate(-235.462 -.01)"/>
            <path id="패스_2438" d="M368.44 12.849c-1.454 0-6.2.433-6.2 6.013V20.9c0 5.579 5.153 6.013 6.733 6.013a8.715 8.715 0 0 0 3.872-.871c.723-.421 1.482-1.15 1.014-2.242a1.256 1.256 0 0 0-1.4-.633 2.7 2.7 0 0 0-.666.2c-.115.045-.229.089-.342.127a6.531 6.531 0 0 1-2.382.323c-1.473 0-3.06-.791-3.06-2.526v-.415l.415-.023h7.94c.039-.35.062-.76.062-1.024 0-6.264-3.419-6.988-5.99-6.988m2.3 5.8H366l.006-.421a2.5 2.5 0 0 1 4.177-1.8 2.386 2.386 0 0 1 .573 1.83z" class="cls-4" transform="translate(-253.395 -8.987)"/>
            <path id="패스_2439" d="M414.817 27.821h3.883v-7.749a2.45 2.45 0 0 1 2.5-2.386c.232-.016.508-.011.768-.006h.329a1.6 1.6 0 0 0 1.608-1.433 1.737 1.737 0 0 0-.981-1.946 2.594 2.594 0 0 0-.93-.154 4.106 4.106 0 0 0-2.8 1.186l-.42.4-.241-.525a1.882 1.882 0 0 0-1.785-1.056 1.8 1.8 0 0 0-1.927 1.663 1.736 1.736 0 0 0 0 .244z" class="cls-4" transform="translate(-290.171 -9.896)"/>
        </g>
    </g>
</svg>
