<svg id="checkbox:unckeckd" xmlns="http://www.w3.org/2000/svg" width="28" height="28" viewBox="0 0 28 28">
  <g id="그룹_4671" data-name="그룹 4671">
    <circle id="타원_78" data-name="타원 78" cx="13.376" cy="13.376" r="13.376" transform="translate(0.624 0.624)" fill="none"/>
    <path id="패스_2800" data-name="패스 2800" d="M758.813,1700.334a12.752,12.752,0,1,1-12.752,12.752,12.766,12.766,0,0,1,12.752-12.752m0-1.248h0a14,14,0,1,0,0,28h0a14,14,0,1,0,0-28Z" transform="translate(-744.813 -1699.086)" fill="#ccc"/>
  </g>
  <path id="패스_2802" data-name="패스 2802" d="M768.164,1731.9a1.249,1.249,0,0,1-.883-.366l-3.1-3.1a1.248,1.248,0,0,1,1.765-1.765l2.215,2.214,5.705-5.705a1.248,1.248,0,0,1,1.765,1.766l-6.588,6.588A1.249,1.249,0,0,1,768.164,1731.9Z" transform="translate(-755.909 -1712.938)" fill="#ccc"/>
</svg>
